<?xml version="1.0" encoding="UTF-8" standalone="no"?>
<!DOCTYPE svg PUBLIC "-//W3C//DTD SVG 1.1//EN" "http://www.w3.org/Graphics/SVG/1.1/DTD/svg11.dtd">
<svg width="100%" height="100%" viewBox="0 0 257 86" version="1.1" xmlns="http://www.w3.org/2000/svg" xmlns:xlink="http://www.w3.org/1999/xlink" xml:space="preserve" xmlns:serif="http://www.serif.com/" style="fill-rule:evenodd;clip-rule:evenodd;stroke-linejoin:round;stroke-miterlimit:2;">
    <g id="ArtBoard1" transform="matrix(1,0,0,1,-1.77964,-72.052)">
        <rect x="1.78" y="72.052" width="256.579" height="85.109" style="fill:none;"/>
        <clipPath id="_clip1">
            <rect x="1.78" y="72.052" width="256.579" height="85.109"/>
        </clipPath>
        <g clip-path="url(#_clip1)">
            <g transform="matrix(1.11258,0,0,1.11258,4.60511,73.4887)">
                <g id="SvgjsG1323">
                    <path d="M27.6,11.84C30.96,11.96 30.96,14.28 30.84,15.2L30.68,15.84L15.68,15.84L14.24,22.76L25,22.76L24.16,26.8L13.36,26.8L11.44,36L27.64,36L26.8,40L0,40L5.08,15.84L7.84,15.84C6.92,13.48 3.32,12.04 2.8,11.84C2.8,11.84 2.76,11.84 27.6,11.84ZM68.28,11.84C71.72,11.96 71.64,14.4 71.48,15.24L66.28,40L55.68,40L48.64,23.88L48.48,23.88C47.4,28.64 45.88,40 34.48,40L39.56,15.84L42.28,15.84C41.48,14 39.2,12.32 37.24,11.84L51.6,11.84L58.16,27.44L58.32,27.44L61.6,11.84L68.28,11.84ZM102.24,11.84C105.6,11.96 105.6,14.28 105.48,15.2L105.32,15.84L90.32,15.84L88.88,22.76L99.64,22.76L98.8,26.8L88,26.8L86.08,36L102.28,36L101.44,40L74.64,40L79.72,15.84L82.48,15.84C81.56,13.48 77.96,12.04 77.44,11.84C77.44,11.84 77.4,11.84 102.24,11.84ZM146.08,19.88C145.2,24.08 140.8,26.76 135.48,27.96L146.76,43.88L135.76,43.88L125.4,28.64L122.04,28.64C121,32.76 118.24,40 109.12,40L114.2,15.84L116.92,15.84C116,13.52 112.44,12.04 111.92,11.84C111.92,11.84 111.88,11.84 132.76,11.84C142.96,11.84 147.04,15.36 146.08,19.88ZM126.32,24.4C133.16,24.4 135.12,24 136,19.88C136.48,17.64 135.76,15.84 131.6,15.84L124.72,15.84L122.92,24.4L126.32,24.4ZM170.44,11.48C181.12,11.48 185.2,14.96 184.6,17.8L184.12,20L173.44,20L173.92,17.8C174.08,16.96 172.64,15.52 169.56,15.52C165.84,15.52 163.92,16.96 163.76,17.8L160.32,34.08C160.12,34.92 161.44,36.36 165.16,36.36C169.16,36.36 171.48,35.04 171.96,32.72L172.88,28.44L166.92,28.44L167.76,24.4L183.2,24.4L181.36,33.08C180.56,36.92 175,40.4 164.32,40.4C152.56,40.4 149.04,36.92 149.64,34.12L153.08,17.8C153.2,17.16 153.56,16.52 154.16,15.88L158.08,15.88C157.12,13.88 154.76,12.8 152.76,12C152.56,11.92 152.4,11.88 152.36,11.84C152.32,11.84 152.32,11.84 169.4,11.48L170.44,11.48ZM217.92,7.76L228.32,7.76L209.04,28.96C206.92,37.12 204.08,43.8 195.4,43.84L198.8,28.96L191.52,14.6C191.12,14.04 189.72,12.08 188,11.72L200.4,11.72L204.72,25.32L204.92,25.32L217.92,7.76Z" style="fill:white;fill-rule:nonzero;"/>
                </g>
            </g>
            <g transform="matrix(1.13489,0,0,1.13489,30.0075,128.242)">
                <g id="SvgjsG1324">
                    <path d="M11.88,5.84C17,5.84 19.06,7.62 18.58,9.88C18.12,12 15.92,13.34 13.24,13.96L17.58,20L12.06,20L8.18,14.3L6.48,14.3C5.98,16.36 4.58,20 0,20L2.6,7.64C2.6,7.64 2.96,6.44 1.38,5.84L11.88,5.84ZM13.5,9.88C13.74,8.76 13.38,7.86 11.28,7.86L7.84,7.86L6.94,12.16L8.64,12.16C12.08,12.16 13.06,11.96 13.5,9.88ZM38.481,5.84C40.161,5.9 40.161,7.08 40.101,7.54L40.021,7.86L32.481,7.86L31.741,11.34L37.161,11.34L36.741,13.36L31.321,13.36L30.341,17.98L38.481,17.98L38.061,20L24.601,20L27.241,7.5C27.281,7.16 27.241,6.32 25.981,5.84L38.481,5.84ZM56.242,5.62C61.622,5.62 63.682,7.36 63.382,8.8L63.142,9.92L57.782,9.92L58.002,8.8C58.102,8.38 57.362,7.66 55.822,7.66C53.942,7.66 52.982,8.38 52.902,8.8L51.182,16.98C51.082,17.4 51.742,18.12 53.622,18.12C55.142,18.12 56.202,17.4 56.282,16.98L56.522,15.86L61.882,15.86L61.642,16.98C61.342,18.42 58.562,20.16 53.182,20.16C47.302,20.16 45.462,18.42 45.762,17L47.482,8.8C47.562,8.42 47.822,8.02 48.222,7.64C48.222,7.64 49.562,6.58 47.122,5.82L56.242,5.62ZM86.323,5.84C87.983,5.9 88.003,7.02 87.943,7.5L85.303,20L79.983,20L81.383,13.34L75.763,13.34C75.043,16.5 73.703,20 69.043,20L71.643,7.64C71.643,7.64 72.003,6.44 70.423,5.84L77.343,5.84L76.183,11.34L81.803,11.34L82.983,5.84L86.323,5.84ZM104.764,5.84C105.904,5.84 106.384,6.58 106.564,7.14L109.424,20L104.104,20L103.724,16.7L98.584,16.7C97.584,18.34 95.904,20 91.844,20L99.864,7.52C100.024,7.24 100.284,6.4 98.584,5.84L104.764,5.84ZM99.904,14.66L103.304,14.66L102.764,9.58L102.644,9.58L99.904,14.66ZM127.705,5.84C132.825,5.84 134.885,7.62 134.405,9.88C133.945,12 131.745,13.34 129.065,13.96L133.405,20L127.885,20L124.005,14.3L122.305,14.3C121.805,16.36 120.405,20 115.825,20L118.425,7.64C118.425,7.64 118.785,6.44 117.205,5.84L127.705,5.84ZM129.325,9.88C129.565,8.76 129.205,7.86 127.105,7.86L123.665,7.86L122.765,12.16L124.465,12.16C127.905,12.16 128.885,11.96 129.325,9.88ZM150.906,5.62C156.266,5.62 158.326,7.36 158.026,8.8L157.786,9.92L152.426,9.92L152.646,8.8C152.746,8.38 152.006,7.66 150.466,7.66C148.606,7.66 147.626,8.38 147.546,8.8L145.826,16.98C145.726,17.4 146.386,18.12 148.266,18.12C150.266,18.12 151.426,17.46 151.666,16.3L152.126,14.14L149.146,14.14L149.566,12.12L157.326,12.12L156.406,16.5C155.986,18.42 153.206,20.16 147.826,20.16C141.906,20.16 140.146,18.42 140.446,17L142.186,8.8C142.266,8.42 142.506,8.02 142.906,7.64C142.906,7.64 144.226,6.58 141.786,5.82L150.906,5.62ZM177.427,5.84C179.107,5.9 179.107,7.08 179.047,7.54L178.967,7.86L171.427,7.86L170.687,11.34L176.107,11.34L175.687,13.36L170.267,13.36L169.287,17.98L177.427,17.98L177.007,20L163.547,20L166.187,7.5C166.227,7.16 166.187,6.32 164.927,5.84L177.427,5.84Z" style="fill:white;fill-rule:nonzero;"/>
                </g>
            </g>
        </g>
    </g>
</svg>
