<?xml version="1.0" standalone="no"?>
<!DOCTYPE svg PUBLIC "-//W3C//DTD SVG 20010904//EN"
 "http://www.w3.org/TR/2001/REC-SVG-20010904/DTD/svg10.dtd">
<svg version="1.0" xmlns="http://www.w3.org/2000/svg"
 width="260.000000pt" height="260.000000pt" viewBox="0 0 260.000000 260.000000"
 preserveAspectRatio="xMidYMid meet">
<metadata>
Created by potrace 1.14, written by Peter Selinger 2001-2017
</metadata>
<g transform="translate(0.000000,260.000000) scale(0.100000,-0.100000)"
fill="#000000" stroke="none">
<path d="M577 2139 c79 -39 134 -131 119 -198 -18 -84 -69 -327 -82 -391 -9
-41 -18 -84 -21 -95 -2 -11 -6 -29 -8 -40 -2 -11 -11 -54 -20 -95 -9 -41 -18
-86 -21 -100 -2 -14 -8 -43 -14 -65 -14 -58 -50 -225 -56 -260 -3 -16 -16 -80
-29 -142 -14 -61 -26 -122 -29 -135 -12 -58 -26 -129 -40 -193 -9 -38 -16 -73
-16 -77 0 -5 389 -8 864 -8 l864 0 17 75 c9 41 18 87 21 102 2 15 7 40 10 55
l6 28 -499 0 c-274 0 -509 0 -522 0 -21 0 -23 3 -17 32 12 64 16 83 21 108 3
14 7 34 9 45 3 11 10 43 16 70 6 28 14 60 16 72 2 12 15 74 29 139 14 65 25
121 25 124 0 3 157 5 349 4 l348 -1 21 96 c39 179 39 161 -5 162 -21 0 -174 1
-341 1 -166 0 -305 4 -308 9 -4 8 25 157 73 372 l15 67 483 0 c541 0 495 -7
495 76 0 87 -49 149 -135 173 -26 7 -306 11 -860 11 l-820 0 42 -21z"/>
</g>
</svg>
